<?xml version="1.0" standalone="no"?>
<!DOCTYPE svg PUBLIC "-//W3C//DTD SVG 20010904//EN"
 "http://www.w3.org/TR/2001/REC-SVG-20010904/DTD/svg10.dtd">
<svg version="1.0" xmlns="http://www.w3.org/2000/svg"
 width="200.000000pt" height="32.000000pt" viewBox="0 0 200.000000 32.000000"
 preserveAspectRatio="xMidYMid meet">

<g transform="translate(0.000000,32.000000) scale(0.100000,-0.100000)"
fill="#000000" stroke="none">
<path d="M380 215 c-25 -30 -4 -58 51 -69 16 -4 30 -15 34 -28 l8 -23 4 23 c5
26 -12 46 -50 56 -28 7 -35 20 -17 31 6 3 10 10 10 16 0 14 -26 11 -40 -6z"/>
<path d="M432 218 c6 -16 36 -34 44 -25 9 9 -15 37 -33 37 -8 0 -13 -5 -11
-12z"/>
<path d="M512 159 c-12 -40 -20 -74 -18 -77 11 -10 26 12 42 60 16 49 18 51
28 29 8 -18 7 -25 -7 -32 -25 -14 -21 -29 8 -29 16 0 25 -6 25 -15 0 -8 7 -15
15 -15 20 0 18 13 -8 85 -16 44 -27 61 -43 63 -18 3 -24 -7 -42 -69z"/>
<path d="M650 220 c0 -5 9 -10 20 -10 11 0 20 5 20 10 0 6 -9 10 -20 10 -11 0
-20 -4 -20 -10z"/>
<path d="M761 154 c1 -89 19 -97 23 -9 3 63 -1 85 -15 85 -5 0 -8 -34 -8 -76z"/>
<path d="M810 210 c-14 -27 4 -60 33 -60 27 0 41 -10 50 -32 4 -12 1 -18 -8
-18 -8 0 -15 -5 -15 -10 0 -7 6 -7 20 0 39 21 20 70 -33 84 -28 7 -35 20 -17
31 15 9 12 25 -5 25 -8 0 -19 -9 -25 -20z"/>
<path d="M860 222 c0 -10 41 -35 47 -28 9 8 -17 36 -33 36 -8 0 -14 -3 -14 -8z"/>
<path d="M934 219 c-3 -6 -1 -16 5 -22 8 -8 11 -5 11 11 0 24 -5 28 -16 11z"/>
<path d="M1031 155 c2 -100 23 -97 27 3 2 59 -1 72 -13 72 -12 0 -15 -14 -14
-75z"/>
<path d="M1150 215 c-25 -30 -4 -58 51 -69 16 -4 30 -15 34 -28 l8 -23 4 23
c5 26 -12 46 -50 56 -28 7 -35 20 -17 31 6 3 10 10 10 16 0 14 -26 11 -40 -6z"/>
<path d="M1202 218 c6 -16 36 -34 44 -25 9 9 -15 37 -33 37 -8 0 -13 -5 -11
-12z"/>
<path d="M1273 214 c-3 -8 -1 -20 6 -27 8 -8 11 -4 11 16 0 30 -7 35 -17 11z"/>
<path d="M1371 154 c1 -90 20 -97 23 -9 2 65 -1 85 -15 85 -5 0 -8 -34 -8 -76z"/>
<path d="M1426 208 c-18 -26 -21 -68 -5 -68 5 0 7 -5 4 -10 -8 -14 13 -40 31
-40 12 0 11 6 -3 28 -10 15 -22 30 -28 34 -6 5 -5 8 3 8 6 0 12 6 12 14 0 7 7
19 15 26 8 7 15 16 15 21 0 17 -29 9 -44 -13z"/>
<path d="M1480 222 c0 -10 38 -42 50 -42 15 0 12 17 -6 34 -16 17 -44 22 -44
8z"/>
<path d="M1560 155 c0 -55 3 -75 13 -75 9 0 14 21 15 75 2 61 0 75 -13 75 -12
0 -15 -15 -15 -75z"/>
<path d="M1600 221 c0 -5 9 -11 20 -14 11 -3 20 -13 20 -22 0 -9 -9 -19 -20
-22 -27 -7 -25 -23 3 -23 29 0 47 18 47 45 0 12 -5 26 -12 33 -14 14 -58 16
-58 3z"/>
<path d="M681 140 c0 -45 4 -60 14 -60 11 0 13 12 10 53 -2 28 -4 55 -5 60 0
4 -4 7 -9 7 -5 0 -10 -27 -10 -60z"/>
<path d="M970 160 c0 -5 11 -10 25 -10 14 0 25 5 25 10 0 6 -11 10 -25 10 -14
0 -25 -4 -25 -10z"/>
<path d="M1262 134 c-1 -24 3 -34 13 -34 19 0 20 37 2 55 -12 11 -14 8 -15
-21z"/>
<path d="M1310 160 c0 -5 9 -10 20 -10 11 0 20 5 20 10 0 6 -9 10 -20 10 -11
0 -20 -4 -20 -10z"/>
<path d="M1523 153 c-3 -10 -13 -26 -21 -35 -8 -9 -12 -23 -10 -30 6 -18 58
36 58 62 0 25 -18 27 -27 3z"/>
<path d="M937 143 c-10 -9 -8 -43 2 -43 5 0 11 11 13 25 5 24 -2 32 -15 18z"/>
<path d="M370 115 c0 -19 36 -39 45 -24 4 6 -1 17 -11 24 -24 18 -34 19 -34 0z"/>
<path d="M800 115 c0 -19 36 -39 45 -24 4 6 -1 17 -11 24 -24 18 -34 19 -34 0z"/>
<path d="M1140 115 c0 -19 36 -39 45 -24 4 6 -1 17 -11 24 -24 18 -34 19 -34
0z"/>
<path d="M436 95 c-3 -8 -1 -15 4 -15 13 0 22 18 11 24 -5 3 -11 -1 -15 -9z"/>
<path d="M1206 95 c-3 -8 -1 -15 4 -15 13 0 22 18 11 24 -5 3 -11 -1 -15 -9z"/>
</g>
</svg>
